# xmcd
#
# Track frame offsets:
#	150
#	15902
#	37210
#	52847
#	68752
#	91515
#	113422
#	132405
#	155162
#	173165
#
# Disc length: 2501 seconds
#
# Revision: 0
# Processed by: cddbd v1.5.2PL0 Copyright (c) Steve Scherf et al.
# Submitted via: audiograbber 1.83.01
#
DISCID=7309c30a
DTITLE=George Thorogood and The Destroyers - Bad To The Bone
DYEAR=1982
DGENRE=Blues
TTITLE0=Back To Wentzville
TTITLE1=Blue Highway
TTITLE2=Nobody But Me
TTITLE3=It's A Sin
TTITLE4=New Boogie Chillun
TTITLE5=Bad To The Bone
TTITLE6=Miss Luann
TTITLE7=As The Years Go Passing By
TTITLE8=No Particular Place To Go
TTITLE9=Wanted Man
EXTD=
EXTT0=
EXTT1=
EXTT2=
EXTT3=
EXTT4=
EXTT5=
EXTT6=
EXTT7=
EXTT8=
EXTT9=
PLAYORDER=
